<svg width="16" height="16" viewBox="0 0 16 16" fill="none" xmlns="http://www.w3.org/2000/svg">
    <g clip-path="url(#clip0_71_23)">
        <path
            d="M14.8848 12.2814C15.3701 12.9708 16.0001 13.7674 16.0001 14.3334C16.0001 14.7755 15.8245 15.1994 15.512 15.512C15.1994 15.8245 14.7755 16.0001 14.3334 16.0001C13.8914 16.0001 13.4675 15.8245 13.1549 15.512C12.8424 15.1994 12.6668 14.7755 12.6668 14.3334C12.6668 13.8168 13.3074 12.9948 13.7948 12.2874C13.8558 12.1998 13.9371 12.128 14.0316 12.0783C14.1262 12.0286 14.2314 12.0023 14.3382 12.0017C14.4451 12.0011 14.5505 12.0262 14.6456 12.0749C14.7407 12.1236 14.8228 12.1944 14.8848 12.2814ZM14.3001 9.24278L8.51878 15.0241C7.89314 15.6482 7.0455 15.9987 6.16178 15.9987C5.27806 15.9987 4.43041 15.6482 3.80478 15.0241L0.976776 12.1954C0.351669 11.5703 0.000488281 10.7225 0.000488281 9.83844C0.000488281 8.9544 0.351669 8.10656 0.976776 7.48144L4.78278 3.67478L2.87878 1.74811C2.75786 1.62172 2.69145 1.45288 2.69388 1.27798C2.6963 1.10309 2.76737 0.936149 2.89175 0.813168C3.01613 0.690187 3.18386 0.621015 3.35877 0.620567C3.53369 0.62012 3.70177 0.688432 3.82678 0.810775L5.72544 2.73344L6.75744 1.70011L6.19544 1.13811C6.074 1.01237 6.00681 0.843972 6.00833 0.669175C6.00985 0.494377 6.07996 0.327168 6.20356 0.203563C6.32717 0.0799575 6.49438 0.00984493 6.66918 0.00832598C6.84397 0.00680704 7.01238 0.0740033 7.13811 0.195442L15.8048 8.86211C15.8685 8.92361 15.9192 8.99717 15.9542 9.07851C15.9891 9.15984 16.0075 9.24732 16.0083 9.33584C16.009 9.42436 15.9922 9.51215 15.9587 9.59408C15.9251 9.67601 15.8756 9.75044 15.813 9.81304C15.7504 9.87563 15.676 9.92514 15.5941 9.95866C15.5121 9.99218 15.4244 10.009 15.3358 10.0083C15.2473 10.0075 15.1598 9.98912 15.0785 9.95418C14.9972 9.91924 14.9236 9.86845 14.8621 9.80478L14.3001 9.24278ZM13.3574 8.30011L7.70011 2.64278L6.66211 3.68144L9.80744 6.86678C9.87571 6.92741 9.9308 7.00142 9.96929 7.08421C10.0078 7.16701 10.0288 7.25683 10.0312 7.34811C10.0335 7.43939 10.0171 7.53017 9.98292 7.61484C9.94874 7.6995 9.89753 7.77624 9.83246 7.8403C9.7674 7.90436 9.68987 7.95437 9.60468 7.98723C9.51949 8.02009 9.42846 8.0351 9.33723 8.03133C9.246 8.02757 9.15652 8.0051 9.07433 7.96532C8.99215 7.92555 8.919 7.86931 8.85944 7.80011L5.72011 4.62344L1.92011 8.42344C1.73436 8.60916 1.58701 8.82966 1.48648 9.07233C1.38595 9.315 1.3342 9.5751 1.3342 9.83778C1.3342 10.1004 1.38595 10.3605 1.48648 10.6032C1.58701 10.8459 1.73436 11.0664 1.92011 11.2521L4.74811 14.0808C5.12362 14.4551 5.63222 14.6653 6.16244 14.6653C6.69266 14.6653 7.20126 14.4551 7.57678 14.0808L13.3574 8.30011Z"
            fill="black" />
    </g>
    <defs>
        <clipPath id="clip0_71_23">
            <rect width="16" height="16" fill="white" />
        </clipPath>
    </defs>
</svg>