<svg width="16" height="16" viewBox="0 0 16 16" fill="none" xmlns="http://www.w3.org/2000/svg">
    <path
        d="M15.9968 3.93137C15.9878 4.07551 15.9678 4.17515 15.9408 4.22403C15.9119 4.27667 15.8276 4.3149 15.6887 4.33872C15.387 4.40389 15.1863 4.29234 15.0873 4.00469C14.7367 2.94559 14.3193 2.24244 13.8369 1.89024C13.1673 1.40581 11.996 1.16266 10.3191 1.16266C9.64114 1.16266 9.26872 1.23473 9.20375 1.37761C9.1806 1.42461 9.16709 1.49292 9.16709 1.58066V13.4871C9.16709 13.996 9.28802 14.3538 9.53437 14.5581C9.78008 14.7587 10.222 15.0162 10.9501 15.1842C11.2608 15.2487 11.574 15.3095 11.6152 15.334C11.9111 15.334 11.9394 15.9964 11.3733 15.9964C11.3572 16.0064 4.69994 15.9914 4.69994 15.9914C4.69994 15.9914 4.2349 15.7163 4.65234 15.3503C4.82666 15.2744 5.14569 15.1353 5.14569 15.1353C5.14569 15.1353 6.32278 14.7505 6.56785 14.503C6.847 14.2241 6.98465 13.7735 6.98465 13.1531V1.58003C6.98465 1.34878 6.83736 1.21342 6.54276 1.17456C6.51124 1.16516 6.26939 1.16203 5.82107 1.16203C4.2677 1.16203 3.12534 1.42399 2.38757 1.95103C1.83183 2.34083 1.33977 3.05651 0.906243 4.10183C0.766664 4.42771 0.573699 4.53362 0.329276 4.42332C0.051406 4.36002 -0.0495792 4.21087 0.0224612 3.9815C0.308693 3.12043 0.452131 1.90716 0.452131 0.337934C0.452131 0.15494 0.701056 -0.0293062 1.20019 0.00390833L14.9432 0.0402563C15.3992 -0.0249194 15.6482 0.0477766 15.6893 0.255211C15.9183 1.31369 16.0199 2.53949 15.9968 3.93137Z"
        fill="black" />
</svg>