<svg width="16" height="16" viewBox="0 0 16 16" fill="none" xmlns="http://www.w3.org/2000/svg">
<path d="M13.6427 3.06208C13.5807 3.04741 12.6901 2.84141 11.3641 2.67275L10.9254 1.33275C10.8501 1.10208 10.6554 0.930748 10.4161 0.885415C10.3701 0.876748 9.25407 0.666748 8.00007 0.666748C6.74607 0.666748 5.63007 0.876081 5.58341 0.885415C5.34541 0.930748 5.15074 1.10275 5.07474 1.33275L4.63607 2.67341C3.31074 2.84208 2.42007 3.04741 2.35807 3.06208C1.99941 3.14541 1.77674 3.50408 1.86074 3.86275C1.93207 4.17008 2.20674 4.37808 2.50941 4.37808C2.55074 4.37808 2.59274 4.37408 2.63474 4.36608C2.52874 5.42341 2.44074 6.85142 2.44074 8.20475C2.44074 11.6121 2.99607 14.1147 3.01941 14.2194C3.07274 14.4547 3.24874 14.6434 3.47941 14.7121C3.56541 14.7374 5.59941 15.3334 8.00007 15.3334C10.4007 15.3334 12.4341 14.7374 12.5201 14.7121C12.7521 14.6427 12.9287 14.4541 12.9807 14.2174C13.0047 14.1114 13.5594 11.5827 13.5594 8.20408C13.5594 6.84541 13.4721 5.41941 13.3667 4.36608C13.7107 4.43208 14.0567 4.21208 14.1387 3.86275C14.2227 3.50408 14.0001 3.14541 13.6421 3.06141L13.6427 3.06208ZM11.7574 13.5341C11.0874 13.6967 9.62141 14.0001 8.00007 14.0001C6.37874 14.0001 4.91207 13.6961 4.24141 13.5334C4.09007 12.7167 3.77341 10.7021 3.77341 8.20408C3.77341 6.73075 3.88607 5.12808 4.00274 4.11141C4.99741 3.95541 6.44607 3.78341 8.00007 3.78341C9.55407 3.78341 11.0054 3.95475 11.9994 4.11075C12.1147 5.12275 12.2267 6.72275 12.2267 8.20342C12.2267 10.6761 11.9081 12.7094 11.7574 13.5334V13.5341Z" fill="black"/>
<path d="M6.45402 5.82056C6.08535 5.82056 5.78735 6.11922 5.78735 6.48722V11.5939C5.78735 11.9619 6.08535 12.2606 6.45402 12.2606C6.82269 12.2606 7.12069 11.9619 7.12069 11.5939V6.48722C7.12069 6.11922 6.82269 5.82056 6.45402 5.82056Z" fill="black"/>
<path d="M9.54606 5.82056C9.17739 5.82056 8.87939 6.11922 8.87939 6.48722V11.5939C8.87939 11.9619 9.17739 12.2606 9.54606 12.2606C9.91473 12.2606 10.2127 11.9619 10.2127 11.5939V6.48722C10.2127 6.11922 9.91473 5.82056 9.54606 5.82056Z" fill="black"/>
</svg>